# xmcd
#
# Track frame offsets:
#	150
#	17478
#	43868
#	66383
#	87690
#	106443
#	130151
#	148733
#	168874
#	185885
#	210324
#
# Disc length: 3102 seconds
# Revision: 1
# Processed by: cddbd v1.5.2PL0 Copyright (c) Steve Scherf et al.
# Submitted via: dBpowerAMP V12.0
#
DISCID=a20c1c0b
DTITLE=Thorbjørn Risager and The Black Tornado - Change My Game
DYEAR=2017
DGENRE=Blues
TTITLE0=I Used To Love You
TTITLE1=Dreamland
TTITLE2=Change My Game
TTITLE3=Holler 'N' Moan
TTITLE4=Hard Time
TTITLE5=Long Gone
TTITLE6=Hold My Lover Tight
TTITLE7=Maybe It's Alright
TTITLE8=Train
TTITLE9=Lay My Burden Down
TTITLE10=City Of Love
EXTD=
EXTT0=
EXTT1=
EXTT2=
EXTT3=
EXTT4=
EXTT5=
EXTT6=
EXTT7=
EXTT8=
EXTT9=
EXTT10=
PLAYORDER=
